<?xml version="1.0" encoding="UTF-8" standalone="no"?>
<svg
   width="24"
   height="24"
   fill="#000000"
   version="1.1"
   viewBox="0 0 24 24"
   id="svg1"
   sodipodi:docname="checkbox.svg"
   inkscape:version="1.4.2 (ebf0e940d0, 2025-05-08)"
   xmlns:inkscape="http://www.inkscape.org/namespaces/inkscape"
   xmlns:sodipodi="http://sodipodi.sourceforge.net/DTD/sodipodi-0.dtd"
   xmlns="http://www.w3.org/2000/svg"
   xmlns:svg="http://www.w3.org/2000/svg">
  <defs
     id="defs1" />
  <sodipodi:namedview
     id="namedview1"
     pagecolor="#ffffff"
     bordercolor="#999999"
     borderopacity="1"
     inkscape:showpageshadow="2"
     inkscape:pageopacity="0"
     inkscape:pagecheckerboard="0"
     inkscape:deskcolor="#d1d1d1"
     inkscape:zoom="35.333333"
     inkscape:cx="12.014151"
     inkscape:cy="12"
     inkscape:window-width="1920"
     inkscape:window-height="1050"
     inkscape:window-x="0"
     inkscape:window-y="0"
     inkscape:window-maximized="1"
     inkscape:current-layer="svg1" />
  <path
     d="m5 3c-1.108 0-2 0.892-2 2v14c0 1.108 0.892 2 2 2h14c1.108 0 2-0.892 2-2v-14c0-1.108-0.892-2-2-2zm12.59 3.5801 1.4102 1.4199-9 9-5-5 1.4102-1.4102 3.5898 3.5801z"
     fill="#E53935"
     style="paint-order:stroke fill markers"
     id="path1" />
  <path
     style="fill:#d10000;stroke-width:0.0283019"
     d="M 4.5849057,20.939552 C 4.4759434,20.916627 4.266422,20.839719 4.1193026,20.768646 3.894926,20.660249 3.8124353,20.600044 3.6075013,20.39511 3.4036788,20.191287 3.3414348,20.106252 3.2319184,19.882003 2.9957996,19.398519 3.0141509,20.062739 3.0141509,12 3.0141509,3.9406731 2.9959315,4.6026158 3.231099,4.1179245 3.3412034,3.8909941 3.4000196,3.8108471 3.6081787,3.6040896 3.813994,3.3996602 3.8988233,3.3378866 4.1207994,3.2307943 4.6078265,2.9958281 3.9414334,3.0141509 12,3.0141509 c 8.059327,0 7.397384,-0.018219 7.882075,0.2169481 0.226612,0.1099496 0.307166,0.1690078 0.512544,0.3757718 0.201767,0.2031293 0.266123,0.2912907 0.374204,0.5126207 C 21.004072,4.6012373 20.985849,3.9395429 20.985849,12 c 0,8.060785 0.01845,7.391922 -0.217371,7.880697 -0.108345,0.224563 -0.168265,0.306698 -0.373368,0.511802 -0.203823,0.203822 -0.288858,0.266066 -0.513107,0.375583 -0.483788,0.236267 0.184237,0.218052 -7.902036,0.21546 -6.2234186,-0.002 -7.2237468,-0.0079 -7.3950613,-0.04399 z M 18.30419,7.2807447 17.589592,6.5661473 13.797177,10.358484 10.004761,14.15082 8.2076335,12.35386 6.4105061,10.5569 5.7028946,11.264087 C 5.3137082,11.65304 4.995283,11.984078 4.995283,11.999728 c 0,0.01565 1.1239228,1.152431 2.4976062,2.52618 l 2.4976058,2.497726 4.514146,-4.514146 4.514146,-4.5141461 z"
     id="path2" />
</svg>
