<?xml version="1.0" encoding="UTF-8" standalone="no"?>
<svg
   id="Foreground"
   width="26"
   height="26"
   enable-background="new 0 0 16 16"
   version="1.0"
   viewBox="0 0 18.909 18.909"
   sodipodi:docname="close-active.svg"
   inkscape:version="1.4.2 (ebf0e940d0, 2025-05-08)"
   xmlns:inkscape="http://www.inkscape.org/namespaces/inkscape"
   xmlns:sodipodi="http://sodipodi.sourceforge.net/DTD/sodipodi-0.dtd"
   xmlns="http://www.w3.org/2000/svg"
   xmlns:svg="http://www.w3.org/2000/svg">
  <sodipodi:namedview
     id="namedview2"
     pagecolor="#ffffff"
     bordercolor="#999999"
     borderopacity="1"
     inkscape:showpageshadow="2"
     inkscape:pageopacity="0"
     inkscape:pagecheckerboard="0"
     inkscape:deskcolor="#d1d1d1"
     inkscape:zoom="32.615385"
     inkscape:cx="13.01533"
     inkscape:cy="13"
     inkscape:window-width="1920"
     inkscape:window-height="1050"
     inkscape:window-x="0"
     inkscape:window-y="0"
     inkscape:window-maximized="1"
     inkscape:current-layer="Foreground" />
  <defs
     id="defs1">
    <filter
       id="filter839"
       x="-0.047999999"
       y="-0.047999999"
       width="1.096"
       height="1.096"
       color-interpolation-filters="sRGB">
      <feGaussianBlur
         stdDeviation="0.32"
         id="feGaussianBlur1" />
    </filter>
  </defs>
  <circle
     cx="9.4545"
     cy="10.182"
     r="8"
     fill="#000000"
     filter="url(#filter839)"
     opacity=".1"
     stroke-width="0"
     id="circle1" />
  <circle
     cx="9.4545"
     cy="9.4545"
     r="8"
     fill="#d8354a"
     stroke-width="0"
     id="circle2" />
  <path
     d="m6.1115 5.7478c-0.092952 1e-7 -0.18588 0.035309-0.2571 0.10653-0.14245 0.14245-0.14245 0.37175 0 0.5142l3.0852 3.0866-3.0852 3.0852c-0.14245 0.14245-0.14245 0.37175 0 0.5142 0.14245 0.14245 0.37317 0.14245 0.51562 0l3.0852-3.0852 3.0852 3.0852c0.14245 0.14245 0.37175 0.14245 0.5142 0 0.14245-0.14245 0.14245-0.37175 0-0.5142l-3.0852-3.0852 3.0852-3.0866c0.14245-0.14245 0.14245-0.37175 0-0.5142-0.14245-0.14245-0.37175-0.14245-0.5142 0l-3.0852 3.0852-3.0852-3.0852c-0.071224-0.071224-0.16557-0.10653-0.25852-0.10653z"
     fill="#ffffff"
     stroke-linecap="round"
     stroke-linejoin="round"
     stroke-width="1.3606"
     style="paint-order:markers stroke fill"
     id="path2" />
  <path
     style="fill:#e50000;stroke-width:0.0306604;fill-opacity:1"
     d="M 12.432783,23.973457 C 10.513986,23.841975 8.8659911,23.33331 7.31242,22.393023 6.5441761,21.92805 5.9223097,21.436461 5.2429245,20.757075 3.421417,18.935568 2.3540451,16.694879 2.0662632,14.088443 c -0.050162,-0.454314 -0.050162,-1.722572 0,-2.176886 C 2.2526698,10.223275 2.7577781,8.7154919 3.6069767,7.31242 4.0719504,6.5441761 4.5635395,5.9223097 5.2429245,5.2429245 7.0651149,3.4207343 9.3041445,2.3541529 11.911557,2.0662632 c 0.454314,-0.050162 1.722572,-0.050162 2.176886,0 2.608483,0.2880079 4.849889,1.3555432 6.668632,3.1761324 1.824253,1.8261036 2.888662,4.0607493 3.176662,6.6691614 0.05016,0.454314 0.05016,1.722572 0,2.176886 -0.186096,1.685465 -0.692932,3.198406 -1.540714,4.599137 -0.464973,0.768244 -0.956562,1.39011 -1.635948,2.069495 -1.793253,1.793254 -4.007886,2.864105 -6.53066,3.1578 -0.394145,0.04589 -1.467376,0.08094 -1.793632,0.05858 z M 8.6247537,18.060938 c 0.045537,-0.02421 1.048512,-1.010659 2.2288343,-2.192113 l 2.146041,-2.148099 2.177072,2.174971 c 1.503405,1.501953 2.203728,2.181446 2.263213,2.195896 0.218542,0.05308 0.449069,-0.029 0.5822,-0.20732 0.06603,-0.08844 0.101237,-0.313613 0.06948,-0.444359 -0.01445,-0.05949 -0.693943,-0.759808 -2.195896,-2.263213 l -2.174971,-2.177072 2.148099,-2.146041 C 17.05028,9.6732657 18.038253,8.667348 18.06432,8.618216 18.09665,8.557291 18.10737,8.4764525 18.09804,8.3639964 18.0755,8.0922121 17.907788,7.924498 17.636004,7.9019596 c -0.112457,-0.00933 -0.193295,0.0014 -0.25422,0.033721 -0.04913,0.026067 -1.05505,1.0140398 -2.235372,2.1954944 l -2.146041,2.148099 -2.177072,-2.174971 C 9.3198944,8.6023496 8.6195712,7.9228567 8.5600858,7.9084074 8.219575,7.8256958 7.8950472,8.0617608 7.8950472,8.3921629 c 0,0.082931 0.01523,0.1809201 0.033845,0.2177537 0.018615,0.036834 1.0051125,1.0397072 2.1922178,2.2286084 l 2.158373,2.161637 -2.148204,2.146146 c -1.1815112,1.180379 -2.1680094,2.183402 -2.192217,2.228938 -0.086182,0.162113 -0.045301,0.427133 0.088334,0.572649 0.1375712,0.149802 0.425662,0.20432 0.5973577,0.113043 z"
     id="path3"
     transform="scale(0.72726923)" />
</svg>
