<?xml version="1.0" encoding="UTF-8" standalone="no"?>
<svg
   id="Foreground"
   width="26"
   height="26"
   enable-background="new 0 0 16 16"
   version="1.0"
   viewBox="0 0 18.909 18.909"
   sodipodi:docname="close-hover.svg"
   inkscape:version="1.4.2 (ebf0e940d0, 2025-05-08)"
   xmlns:inkscape="http://www.inkscape.org/namespaces/inkscape"
   xmlns:sodipodi="http://sodipodi.sourceforge.net/DTD/sodipodi-0.dtd"
   xmlns="http://www.w3.org/2000/svg"
   xmlns:svg="http://www.w3.org/2000/svg">
  <sodipodi:namedview
     id="namedview2"
     pagecolor="#ffffff"
     bordercolor="#999999"
     borderopacity="1"
     inkscape:showpageshadow="2"
     inkscape:pageopacity="0"
     inkscape:pagecheckerboard="0"
     inkscape:deskcolor="#d1d1d1"
     inkscape:zoom="32.615385"
     inkscape:cx="12.98467"
     inkscape:cy="13"
     inkscape:window-width="1920"
     inkscape:window-height="1050"
     inkscape:window-x="0"
     inkscape:window-y="0"
     inkscape:window-maximized="1"
     inkscape:current-layer="Foreground" />
  <defs
     id="defs1">
    <filter
       id="filter839"
       x="-0.047999999"
       y="-0.047999999"
       width="1.096"
       height="1.096"
       color-interpolation-filters="sRGB">
      <feGaussianBlur
         stdDeviation="0.32"
         id="feGaussianBlur1" />
    </filter>
  </defs>
  <circle
     cx="9.4545"
     cy="10.182"
     r="8"
     fill="#000000"
     filter="url(#filter839)"
     opacity=".1"
     stroke-width="0"
     id="circle1" />
  <circle
     cx="9.4545"
     cy="9.4545"
     r="8"
     fill="#ff7a80"
     stroke-width="0"
     id="circle2" />
  <path
     d="m6.1115 5.7478c-0.092952 1e-7 -0.18588 0.035309-0.2571 0.10653-0.14245 0.14245-0.14245 0.37175 0 0.5142l3.0852 3.0866-3.0852 3.0852c-0.14245 0.14245-0.14245 0.37175 0 0.5142 0.14245 0.14245 0.37317 0.14245 0.51562 0l3.0852-3.0852 3.0852 3.0852c0.14245 0.14245 0.37175 0.14245 0.5142 0 0.14245-0.14245 0.14245-0.37175 0-0.5142l-3.0852-3.0852 3.0852-3.0866c0.14245-0.14245 0.14245-0.37175 0-0.5142-0.14245-0.14245-0.37175-0.14245-0.5142 0l-3.0852 3.0852-3.0852-3.0852c-0.071224-0.071224-0.16557-0.10653-0.25852-0.10653z"
     fill="#ffffff"
     stroke-linecap="round"
     stroke-linejoin="round"
     stroke-width="1.3606"
     style="paint-order:markers stroke fill"
     id="path2" />
  <path
     style="fill:#d10000;stroke-width:0.0306604;fill-opacity:1"
     d="M 12.242797,23.960891 C 9.9415988,23.790226 7.8153455,22.943527 6.028276,21.486196 5.5987667,21.135937 4.8480466,20.38295 4.4979447,19.951243 1.2098771,15.896766 1.1853734,10.192521 4.4385427,6.1229525 4.8210309,5.6444767 5.5850566,4.8732891 6.0487571,4.4976441 8.4769247,2.5305782 11.520051,1.6886128 14.59434,2.1332717 c 1.919745,0.2776681 3.739849,1.0719261 5.282708,2.305271 0.466597,0.3729931 1.243098,1.1399817 1.609449,1.5897333 1.386183,1.7017521 2.20213,3.6633282 2.44724,5.883281 0.05016,0.454314 0.05016,1.722572 0,2.176886 -0.287539,2.604233 -1.35716,4.85128 -3.17519,6.670399 -1.783254,1.784322 -4.012557,2.861358 -6.532132,3.155848 -0.49572,0.05794 -1.507561,0.08151 -1.983618,0.0462 z M 8.6247537,18.060938 c 0.045537,-0.02421 1.048512,-1.010659 2.2288343,-2.192113 l 2.146041,-2.148099 2.177072,2.174971 c 1.503405,1.501953 2.203728,2.181446 2.263213,2.195896 0.218542,0.05308 0.449069,-0.029 0.5822,-0.20732 0.06603,-0.08844 0.101237,-0.313613 0.06948,-0.444359 -0.01445,-0.05949 -0.693943,-0.759808 -2.195896,-2.263213 l -2.174971,-2.177072 2.148099,-2.146041 C 17.05028,9.6732657 18.038253,8.667348 18.06432,8.618216 18.09665,8.557291 18.10737,8.4764525 18.09804,8.3639964 18.0755,8.0922121 17.907788,7.924498 17.636004,7.9019596 c -0.112457,-0.00933 -0.193295,0.0014 -0.25422,0.033721 -0.04913,0.026067 -1.05505,1.0140398 -2.235372,2.1954944 l -2.146041,2.148099 -2.177072,-2.174971 C 9.3198944,8.6023496 8.6195712,7.9228567 8.5600858,7.9084074 8.3415435,7.8553227 8.111017,7.9374125 7.9778863,8.1157268 c -0.06603,0.08844 -0.1012375,0.3136133 -0.069479,0.444359 0.014449,0.059485 0.6939422,0.7598086 2.1958957,2.2632132 l 2.174971,2.177072 -2.148099,2.146041 c -1.1814545,1.180322 -2.1679058,2.183298 -2.1921134,2.228834 -0.086182,0.162113 -0.045301,0.427133 0.088334,0.572649 0.1375712,0.149802 0.425662,0.20432 0.5973581,0.113043 z"
     id="path3"
     transform="scale(0.72726923)" />
</svg>
