<?xml version="1.0" encoding="UTF-8" standalone="no"?>
<svg
   id="Foreground"
   width="26"
   height="26"
   enable-background="new 0 0 16 16"
   version="1.0"
   viewBox="0 0 18.909 18.909"
   sodipodi:docname="close.svg"
   inkscape:version="1.4.2 (ebf0e940d0, 2025-05-08)"
   xmlns:inkscape="http://www.inkscape.org/namespaces/inkscape"
   xmlns:sodipodi="http://sodipodi.sourceforge.net/DTD/sodipodi-0.dtd"
   xmlns="http://www.w3.org/2000/svg"
   xmlns:svg="http://www.w3.org/2000/svg">
  <sodipodi:namedview
     id="namedview2"
     pagecolor="#ffffff"
     bordercolor="#999999"
     borderopacity="1"
     inkscape:showpageshadow="2"
     inkscape:pageopacity="0"
     inkscape:pagecheckerboard="0"
     inkscape:deskcolor="#d1d1d1"
     inkscape:zoom="45.254834"
     inkscape:cx="14.329961"
     inkscape:cy="14.827145"
     inkscape:window-width="1920"
     inkscape:window-height="1050"
     inkscape:window-x="0"
     inkscape:window-y="0"
     inkscape:window-maximized="1"
     inkscape:current-layer="Foreground" />
  <defs
     id="defs1">
    <filter
       id="filter879"
       x="-0.047999999"
       y="-0.047999999"
       width="1.096"
       height="1.096"
       color-interpolation-filters="sRGB">
      <feGaussianBlur
         stdDeviation="0.32"
         id="feGaussianBlur1" />
    </filter>
  </defs>
  <circle
     cx="9.4545"
     cy="10.182"
     r="8"
     fill="#000000"
     filter="url(#filter879)"
     opacity=".1"
     stroke-width="0"
     id="circle1" />
  <circle
     cx="9.4545"
     cy="9.4545"
     r="8"
     fill="#f75a61"
     stroke-width="0"
     id="circle2" />
  <path
     d="m6.1115 5.7478c-0.092952 1e-7 -0.18588 0.035309-0.2571 0.10653-0.14245 0.14245-0.14245 0.37175 0 0.5142l3.0852 3.0866-3.0852 3.0852c-0.14245 0.14245-0.14245 0.37175 0 0.5142 0.14245 0.14245 0.37317 0.14245 0.51562 0l3.0852-3.0852 3.0852 3.0852c0.14245 0.14245 0.37175 0.14245 0.5142 0 0.14245-0.14245 0.14245-0.37175 0-0.5142l-3.0852-3.0852 3.0852-3.0866c0.14245-0.14245 0.14245-0.37175 0-0.5142-0.14245-0.14245-0.37175-0.14245-0.5142 0l-3.0852 3.0852-3.0852-3.0852c-0.071224-0.071224-0.16557-0.10653-0.25852-0.10653z"
     fill="#ffffff"
     stroke-linecap="round"
     stroke-linejoin="round"
     stroke-width="1.3606"
     style="paint-order:markers stroke fill"
     id="path2" />
  <path
     style="fill:#d10000;stroke-width:0.0306604"
     d="M 12.432783,23.973457 C 10.512241,23.841855 8.8584321,23.331665 7.3133873,22.394154 6.5415706,21.925827 5.9223726,21.436363 5.2423956,20.757075 3.4224229,18.938947 2.3541736,16.696043 2.0662632,14.088443 c -0.050162,-0.454314 -0.050162,-1.722572 0,-2.176886 C 2.4240876,8.6707474 4.0442394,5.9022876 6.6876151,4.0147487 8.1746569,2.952906 9.979993,2.2795311 11.911557,2.0662632 c 0.450033,-0.049689 1.72256,-0.05054 2.161556,-0.00145 1.973896,0.2207467 3.662859,0.8492721 5.243484,1.9512935 0.991173,0.6910525 2.018628,1.7279281 2.722746,2.7477124 1.051581,1.5230193 1.683893,3.2412339 1.894394,5.1477339 0.05016,0.454314 0.05016,1.722572 0,2.176886 -0.287014,2.59948 -1.348399,4.833785 -3.161331,6.654868 -1.789743,1.797789 -4.017652,2.877221 -6.545991,3.171564 -0.394145,0.04589 -1.467376,0.08094 -1.793632,0.05858 z M 8.6247537,18.060938 c 0.045537,-0.02421 1.048512,-1.010659 2.2288343,-2.192113 l 2.146041,-2.148099 2.177072,2.174971 c 1.503405,1.501953 2.203728,2.181446 2.263213,2.195896 0.218542,0.05308 0.449069,-0.029 0.5822,-0.20732 0.06603,-0.08844 0.101237,-0.313613 0.06948,-0.444359 -0.01445,-0.05949 -0.693943,-0.759808 -2.195896,-2.263213 l -2.174971,-2.177072 2.148099,-2.146041 C 17.05028,9.6732657 18.038253,8.667348 18.06432,8.618216 18.09665,8.557291 18.10737,8.4764525 18.09804,8.3639964 18.0755,8.0922121 17.907788,7.924498 17.636004,7.9019596 c -0.112457,-0.00933 -0.193295,0.0014 -0.25422,0.033721 -0.04913,0.026067 -1.05505,1.0140398 -2.235372,2.1954944 l -2.146041,2.148099 -2.177072,-2.174971 C 9.3198944,8.6023496 8.6195712,7.9228567 8.5600858,7.9084074 8.3415435,7.8553227 8.111017,7.9374125 7.9778863,8.1157268 c -0.06603,0.08844 -0.1012375,0.3136133 -0.069479,0.444359 0.014449,0.059485 0.6939422,0.7598086 2.1958957,2.2632132 l 2.174971,2.177072 -2.148099,2.146041 c -1.1814545,1.180322 -2.1679058,2.183298 -2.1921134,2.228834 -0.086182,0.162113 -0.045301,0.427133 0.088334,0.572649 0.1375712,0.149802 0.425662,0.20432 0.5973581,0.113043 z"
     id="path3"
     transform="scale(0.72726923)" />
  <path
     style="fill:#000000;fill-opacity:1;stroke-width:0.0306604"
     d="M 8.166653,18.009937 C 8.0043246,17.913197 7.9148676,17.737986 7.932756,17.551819 7.94522,17.422098 7.970817,17.376584 8.1337025,17.194506 8.236367,17.079745 9.2175245,16.089613 10.314053,14.994213 l 1.993687,-1.991635 -2.127233,-2.13506 C 9.0105291,9.6932352 8.0246233,8.6854617 7.9896055,8.6280216 7.8699548,8.4317569 7.9268847,8.1576756 8.1164064,8.0175561 8.2451825,7.9223479 8.4649016,7.901714 8.6009257,7.9720549 8.65748,8.0013002 9.6710191,8.9887631 10.853235,10.166417 l 2.149483,2.141189 1.930245,-1.9323 c 1.061635,-1.0627646 2.051622,-2.043881 2.199971,-2.1802586 0.245296,-0.2255002 0.28309,-0.2492433 0.417265,-0.2621358 0.203189,-0.019524 0.3507,0.054904 0.45225,0.2281861 0.06488,0.110716 0.07673,0.1628913 0.06491,0.2859178 -0.01343,0.1397723 -0.0343,0.171872 -0.293071,0.4507929 -0.153237,0.1651677 -1.134381,1.1551486 -2.18032,2.1999566 l -1.901709,1.899653 2.127235,2.135062 c 1.169979,1.174284 2.155886,2.182058 2.190903,2.239498 0.240168,0.393951 -0.244465,0.878584 -0.638416,0.638416 -0.05744,-0.03502 -1.065213,-1.020923 -2.239497,-2.190902 l -2.13506,-2.127234 -1.960975,1.963028 c -1.0785358,1.079666 -2.0689437,2.061125 -2.2009063,2.181022 -0.22349,0.203054 -0.2508042,0.218753 -0.3985849,0.229079 -0.1219661,0.0085 -0.1844705,-0.0043 -0.2703018,-0.05545 z"
     id="path4"
     transform="scale(0.72726923)" />
  <path
     style="fill:#000000;fill-opacity:1;stroke-width:0.00390625"
     d=""
     id="path5"
     transform="scale(0.72726923)" />
  <path
     style="fill:#000000;fill-opacity:1;stroke-width:0.00390625"
     d="m 18.096479,17.547489 c -0.0013,-0.02488 -0.01601,-0.09119 -0.02634,-0.118636 -0.0053,-0.01417 -0.009,-0.02641 -0.0082,-0.02721 8.01e-4,-8.01e-4 0.0078,0.0078 0.01546,0.01915 0.01129,0.01663 0.01484,0.02665 0.01837,0.05186 0.0024,0.01719 0.0037,0.04443 0.0029,0.06055 -7.84e-4,0.01611 -0.0018,0.02254 -0.0022,0.01429 z"
     id="path6"
     transform="scale(0.72726923)" />
</svg>
