<?xml version="1.0" encoding="UTF-8" standalone="no"?>
<svg
   width="40"
   height="20"
   version="1.1"
   id="svg1"
   sodipodi:docname="toggle-on.svg"
   inkscape:version="1.4.2 (ebf0e940d0, 2025-05-08)"
   xmlns:inkscape="http://www.inkscape.org/namespaces/inkscape"
   xmlns:sodipodi="http://sodipodi.sourceforge.net/DTD/sodipodi-0.dtd"
   xmlns="http://www.w3.org/2000/svg"
   xmlns:svg="http://www.w3.org/2000/svg">
  <defs
     id="defs1" />
  <sodipodi:namedview
     id="namedview1"
     pagecolor="#ffffff"
     bordercolor="#999999"
     borderopacity="1"
     inkscape:showpageshadow="2"
     inkscape:pageopacity="0"
     inkscape:pagecheckerboard="0"
     inkscape:deskcolor="#d1d1d1"
     inkscape:zoom="42.4"
     inkscape:cx="20.011792"
     inkscape:cy="10"
     inkscape:window-width="1920"
     inkscape:window-height="1050"
     inkscape:window-x="0"
     inkscape:window-y="0"
     inkscape:window-maximized="1"
     inkscape:current-layer="svg1" />
  <rect
     transform="scale(-1,1)"
     x="-40"
     y="-.019988"
     width="40"
     height="20"
     rx="10"
     ry="10"
     fill="#E53935"
     stroke-width="0"
     style="paint-order:stroke fill markers"
     id="rect1" />
  <circle
     cx="30"
     cy="9.98"
     r="5"
     fill="#ffffff"
     stroke-width="0"
     style="paint-order:stroke fill markers"
     id="circle1" />
  <path
     style="fill:#d10000;stroke-width:0.0235849"
     d="M 9.2216981,19.938958 C 7.1382144,19.767854 5.227471,18.994638 3.620283,17.672246 3.2060297,17.331399 2.5737724,16.690905 2.2396084,16.273585 1.7334844,15.641513 1.399143,15.120168 1.052286,14.42217 -0.01286641,12.278708 -0.26688299,9.8312493 0.33008446,7.4637316 0.42260771,7.0967929 0.64790571,6.4369557 0.81295677,6.0495283 2.0408849,3.1671913 4.5783689,1.0175997 7.629717,0.27481182 8.0097903,0.18229082 8.3712783,0.11699902 8.8561321,0.05329735 L 9.245283,0.00216942 19.705189,-0.00613367 c 7.328908,-0.00581769 10.586981,-6.5061e-4 10.884434,0.01726198 3.14249,0.18924055 5.973424,1.80855919 7.711495,4.41104149 0.389453,0.5831451 0.619479,1.0062632 0.887347,1.6322123 1.430655,3.3431488 0.909707,7.2668779 -1.342698,10.1130709 -0.923682,1.167187 -2.029005,2.067955 -3.353753,2.733096 -1.077816,0.54116 -2.074903,0.839813 -3.371731,1.00992 -0.300311,0.03939 -0.924594,0.04194 -10.990566,0.04481 -5.869693,0.0017 -10.7783019,-0.0057 -10.9080189,-0.01632 z M 30.510472,14.963632 C 32.749965,14.738298 34.562601,13.036956 34.94087,10.805258 35.375167,8.2430054 33.74871,5.7572498 31.220811,5.1197969 30.638892,4.9730564 29.855474,4.932687 29.28066,5.0198217 c -1.085835,0.1645995 -2.051457,0.6503045 -2.819202,1.4180509 -0.770965,0.7709637 -1.240375,1.6968548 -1.418965,2.7988378 -0.0622,0.3837828 -0.05538,1.1692896 0.01354,1.5607056 0.288044,1.635885 1.287412,2.974609 2.750573,3.684588 0.578502,0.28071 1.034844,0.407399 1.768868,0.491071 0.164816,0.01879 0.709061,0.01329 0.935,-0.0094 z"
     id="path1" />
</svg>
