<?xml version="1.0" encoding="UTF-8" standalone="no"?>
<svg
   width="24"
   height="24"
   version="1.1"
   viewBox="0 0 24 24"
   id="svg1"
   sodipodi:docname="radiobutton.svg"
   inkscape:version="1.4.2 (ebf0e940d0, 2025-05-08)"
   xmlns:inkscape="http://www.inkscape.org/namespaces/inkscape"
   xmlns:sodipodi="http://sodipodi.sourceforge.net/DTD/sodipodi-0.dtd"
   xmlns="http://www.w3.org/2000/svg"
   xmlns:svg="http://www.w3.org/2000/svg">
  <defs
     id="defs1" />
  <sodipodi:namedview
     id="namedview1"
     pagecolor="#ffffff"
     bordercolor="#999999"
     borderopacity="1"
     inkscape:showpageshadow="2"
     inkscape:pageopacity="0"
     inkscape:pagecheckerboard="0"
     inkscape:deskcolor="#d1d1d1"
     inkscape:zoom="35.333333"
     inkscape:cx="12.014151"
     inkscape:cy="12"
     inkscape:window-width="1920"
     inkscape:window-height="1050"
     inkscape:window-x="0"
     inkscape:window-y="0"
     inkscape:window-maximized="1"
     inkscape:current-layer="svg1" />
  <path
     d="m12 2c-5.52 0-10 4.48-10 10s4.48 10 10 10 10-4.48 10-10-4.48-10-10-10zm0 7c1.656 0 3 1.344 3 3s-1.344 3-3 3-3-1.344-3-3 1.344-3 3-3z"
     fill="#E53935"
     id="path1" />
  <path
     style="fill:#d10000;stroke-width:0.0283019"
     d="M 11.207547,21.959117 C 9.1069189,21.750451 7.3285885,21.040816 5.745283,19.779424 5.3451863,19.460674 4.5393262,18.654814 4.220576,18.254717 3.0341325,16.765488 2.3474172,15.130665 2.074729,13.146226 2.024671,12.78194 2.024671,11.21806 2.074729,10.853774 2.3474172,8.8693347 3.0341325,7.2345125 4.220576,5.745283 4.5393262,5.3451863 5.3451863,4.5393262 5.745283,4.220576 7.2345125,3.0341325 8.8693347,2.3474172 10.853774,2.074729 c 0.364286,-0.050058 1.928166,-0.050058 2.292452,0 1.985923,0.2728921 3.618148,0.9585163 5.108491,2.145847 0.400097,0.3187502 1.205957,1.1246103 1.524707,1.524707 1.186453,1.4892413 1.87293,3.1234775 2.145871,5.108491 0.05794,0.421396 0.04893,1.960287 -0.01401,2.391509 -0.283672,1.943585 -0.965202,3.545042 -2.131858,5.009434 -0.31875,0.400097 -1.12461,1.205957 -1.524707,1.524707 -1.111291,0.885347 -2.366809,1.519114 -3.712795,1.874166 -0.879854,0.232093 -1.388625,0.297394 -2.400413,0.308093 -0.451415,0.0048 -0.871698,0.0036 -0.933962,-0.0026 z m 1.289824,-6.990754 c 1.092808,-0.187561 1.981676,-0.933065 2.341266,-1.963646 C 15.39089,11.421965 14.568925,9.7075927 12.994104,9.1575756 11.22696,8.5403878 9.3273105,9.6696739 9.0279631,11.51533 c -0.3299762,2.034503 1.4444739,3.800577 3.4694079,3.453033 z"
     id="path2" />
</svg>
